<?xml version="1.0" encoding="utf-8"?>
<!-- Generator: Adobe Illustrator 22.1.0, SVG Export Plug-In . SVG Version: 6.00 Build 0)  -->
<svg version="1.1" id="Layer_1" xmlns="http://www.w3.org/2000/svg" xmlns:xlink="http://www.w3.org/1999/xlink" x="0px" y="0px"
	 viewBox="0 0 98.8 39.7" style="enable-background:new 0 0 98.8 39.7;" xml:space="preserve">
<style type="text/css">
	.st0{clip-path:url(#SVGID_2_);}
	.st1{opacity:0.5;}
	.st2{fill:#C59B6D;}
	.st3{font-family:'FarCryExtraBold';}
	.st4{font-size:8.9743px;}
	.st5{letter-spacing:1.1;}
	.st6{font-family:'ArialMT';}
	.st7{font-size:3.6363px;}
	.st8{font-size:3.2233px;}
	.st9{opacity:0.8;fill:url(#SVGID_3_);enable-background:new    ;}
	.st10{opacity:0.8;fill:url(#SVGID_4_);enable-background:new    ;}
</style>
<g>
	<g>
		<g>
			<g>
				<defs>
					<path id="SVGID_1_" d="M21.5,19.3H79v10.6H21.5V19.3z M21.5,39.7H79v-9H21.5V39.7z M21.5,18.4H79V7.8H21.5V18.4z M21.5,0v6.7
						H79V0H21.5z"/>
				</defs>
				<clipPath id="SVGID_2_">
					<use xlink:href="#SVGID_1_"  style="overflow:visible;"/>
				</clipPath>
				<g class="st0">
					<g class="st1">
						<text transform="matrix(0.9296 0 0 1 22.7763 23.4268)" class="st2 st3 st4">P</text>
						<text transform="matrix(0.9296 0 0 1 29.7158 23.4268)" class="st2 st3 st4">U</text>
						<text transform="matrix(0.9296 0 0 1 36.7939 23.4268)" class="st2 st3 st4">B</text>
						<text transform="matrix(0.9296 0 0 1 43.5961 23.4268)" class="st2 st3 st4">T</text>
						<text transform="matrix(0.9296 0 0 1 50.6723 23.4268)" class="st2 st3 st4 st5">R</text>
						<text transform="matrix(0.9296 0 0 1 57.8911 23.4268)" class="st2 st3 st4">I</text>
						<text transform="matrix(0.9296 0 0 1 61.3598 23.4268)" class="st2 st3 st4">V</text>
						<text transform="matrix(0.9296 0 0 1 68.9946 23.4268)" class="st2 st3 st4">I</text>
						<text transform="matrix(0.9296 0 0 1 72.3247 23.4268)" class="st2 st3 st4 st5">A</text>
					</g>
					<g class="st1">
						<g>
							<path class="st2" d="M25.4,12.8c0.3,0,0.6,0,1.2,0c0.4,0,1,0,1.7-0.1c0.3,0,0.7,0,1,0c0.4,0,0.7,0,1.2,0c0.4,0,0.9,0,1.3,0
								c0.4,0,0.9,0,1.5,0c1,0,2,0,3,0c0.6,0,1,0,1.6,0c0.3,0,0.6,0,0.9,0c0.3,0,0.6,0,0.9,0c1.2,0,2.2,0,3.3,0l0,0v0.9l0,0
								c-1.2,0-2.2,0-3.3,0c-0.3,0-0.6,0-0.9,0c-0.3,0-0.6,0-0.9,0c-0.6,0-1,0-1.6,0c-1,0-2,0-3,0c-0.4,0-1,0-1.5,0s-0.9,0-1.3,0
								c-0.4,0-0.9,0-1.2,0c-0.4,0-0.7,0-1,0c-0.7,0-1.3,0-1.7-0.1C26,12.8,25.6,12.8,25.4,12.8c-0.3,0-0.4,0-0.4,0
								S25.1,12.8,25.4,12.8z"/>
							<path class="st2" d="M42.9,6.7L42.9,6.7v3.7l0,0c-0.4-0.4-0.6-1-0.6-1.6C42.1,8.1,42.4,7.3,42.9,6.7z"/>
							<path class="st2" d="M41,8.5c0-0.1,0-0.4,0.1-0.7c0.1-0.3,0.1-0.6,0.1-0.7c0-0.1,0-0.4-0.1-0.7c0.3,0,0.4,0.1,0.6,0.4
								C41.8,7,42,7.2,42,7.5c0,0.1,0,0.3-0.1,0.7c0,0.3,0,0.4,0,0.7c0,0.6,0.3,1,0.6,1.5c-0.4-0.1-0.9-0.3-1.2-0.6
								C41.1,9.4,41,9,41,8.5z"/>
							<path class="st2" d="M41,6.4c-0.1-0.3-0.1-0.3,0-0.6c-0.1-0.1-0.3,0-0.3,0c-0.1,0.3-0.1,0.6,0.1,0.7c-0.6,0.7-1-0.7-0.3-1.2
								c0.6-0.3,1.3,0.3,1.3,0.9l0,0C41.8,6.1,41.1,5.7,41,6.4z"/>
							<path class="st2" d="M40.5,11.5c0-0.1,0-0.4,0-0.6c0-0.4-0.1-1-0.1-1.5c-0.1-0.9-0.4-1.8-1-2.4c-0.3-0.3-0.7-0.6-1.2-0.7
								c-0.3,0-0.6,0-0.9,0c-0.1,0-0.1,0.1-0.3,0.1c-0.4,0.3-0.7,0.9-0.6,1.5c0,0.6,0.4,1,0.9,0.9c0.3,0,0.7-0.4,0.6-1
								c-0.1-0.4-0.4-0.6-0.7-0.4c0.6,0.1,0.3,0.9,0,0.9c-0.1,0-0.4-0.3-0.4-0.6c0-0.3,0.3-0.7,0.6-0.7c0.7-0.1,1.3,0.9,1,1.6
								c-0.3,1-1.3,1.2-2,0.6c-1.3-1-0.7-3.4,0.6-4.2c0.7-0.3,1.5-0.3,2.2,0.1c0.6,0.4,1.2,1.2,1.5,1.9
								C40.8,8.5,40.8,10.2,40.5,11.5z"/>
							<path class="st2" d="M31.7,9C31.4,9.1,31,9,31,8.5c0-0.1,0.1-0.4,0.3-0.4c0.1,0,0.3,0,0.3,0.1c0,0.1-0.1,0.4-0.3,0.1
								c0,0.1,0.1,0.3,0.3,0.3c0.1,0,0.3-0.3,0.3-0.4c-0.1-0.4-0.4-0.4-0.7-0.3c-0.1,0.1-0.3,0.4-0.3,0.7c0,0.4,0.3,0.7,0.4,1
								c0.4,0.4,1,0.7,1.7,1c0.7,0.1,1.5,0.3,2,0.3c0.9,0,1.7-0.1,2.8-0.4c0.7-0.1,1.6-0.3,2.2,0.4c0.1,0.1-0.1,0.6-0.3,0.3
								c-0.6-0.6-1.3-0.4-1.9-0.3c-0.6,0.1-1.2,0.3-1.9,0.4c-1.5,0.1-3-0.1-4.4-0.9c-0.3-0.1-0.6-0.4-0.9-0.7
								c-0.3-0.3-0.4-0.7-0.4-1.2s0.1-0.9,0.4-1.2c0.3-0.1,0.6-0.3,0.7-0.1C31.8,7.6,32.1,8.7,31.7,9z"/>
							<path class="st2" d="M32.5,12.1c-1.6-1.3-2.9-1.3-3.9-0.3c-0.4,0.4-0.9,0.4-1,0.4c-0.1,0-0.1-0.1-0.3-0.3
								c0-0.1,0.1-0.6,0.7-0.9C29.4,10.2,31.4,10.6,32.5,12.1z"/>
							<path class="st2" d="M35.2,8.5C35.2,8.5,35.2,8.4,35.2,8.5c0-0.1,0-0.1,0-0.1s0,0,0-0.1V8.1c0-0.1,0-0.1,0-0.3V7.6
								c0,0,0,0,0,0.1c0,0,0,0,0,0.1v0.1v0.1v0.1C35.2,8.4,35.2,8.4,35.2,8.5c0,0,0,0,0,0.1c0,0,0,0,0,0.1l0,0l0,0
								c0.1,0.1,0.1,0.3,0.3,0.4c0.1,0.1,0.3,0.3,0.4,0.3H36h0.1l0,0l0,0h0.1c0.1,0,0.3,0,0.6,0c0.1,0,0.4,0,0.6,0h0.1l0,0l0,0l0,0
								l0,0l0,0l0,0h0.1h0.1c0,0,0,0,0.1,0c0,0,0,0,0.1,0s0.4,0,0.6,0.1c0.1,0.1,0.3,0.1,0.4,0.3c0.1,0.1,0.3,0.3,0.3,0.4
								c0.1,0.1,0.1,0.3,0.1,0.3c0,0.1,0,0.1,0.1,0.3v0.1l0,0L39.7,11c0-0.1-0.1-0.1-0.3-0.3c-0.1-0.1-0.1-0.1-0.3-0.3
								c-0.1,0-0.3-0.1-0.4-0.1s-0.3,0-0.4,0s-0.1,0-0.3,0c-0.1,0-0.1,0-0.3,0.1h-0.1h-0.1h-0.1H37c-0.3,0-0.4,0-0.7-0.1
								c-0.1,0-0.3-0.1-0.3-0.1s-0.1,0-0.1-0.1l0,0l0,0c-0.1-0.1-0.3-0.3-0.4-0.4c-1-1.3-1.5-3.6-0.7-5.2c0.3-0.7,0.6-0.9,0.7-0.9
								s0.1,0.1,0.1,0.3c0.1,0.3,0.1,0.9-0.3,1.3C34.9,6.1,34.7,7.2,35.2,8.5z"/>
							<path class="st2" d="M34.7,9h0.1c0,0,0,0,0,0.1c0,0.3,0.1,0.4,0.3,0.7c0.1,0.1,0.3,0.3,0.4,0.6c0.3,0.3,0.7,0.3,0.9,0.4h-0.1
								c-2.2,0.4-3.3-0.7-3.8-1.5c-0.3-0.3-0.4-0.7-0.4-1.2v0.1c0.3,0.4,0.6,0.6,1,0.3c0.3-0.1,0.4,0,0.6,0.1
								C33.9,9,33.9,9.3,34,9.7c0,0.1,0.1,0.3,0.1,0.4c0.1,0.3,0.4,0.4,0.4,0.3c0,0,0.1-0.1-0.1-0.6c0-0.1-0.1-0.1-0.1-0.3l0,0
								c-0.3-1.2-0.9-1.5-1.5-1c-0.3,0.1-0.4,0.1-0.6,0V8.4c0-0.1,0.1-0.3,0.4-0.4c0.7-0.3,1.3,0.4,1.5,1.3C34.7,9.1,34.7,9,34.7,9z
								"/>
							<path class="st2" d="M31.7,11.9l-2.9,0.3c0-0.6,0.6-1,1.5-1C31,11.3,31.2,11.6,31.7,11.9z"/>
							<path class="st2" d="M41.8,5.5l0.9-3l0,0v3.6l0,0c-0.3,0.1-0.4,0.4-0.4,0.4C41.7,6.1,41.8,5.5,41.8,5.5z"/>
							<path class="st2" d="M42.9,10.6L42.9,10.6v1.2l0,0c0,0-1.3-0.7-1.3-1.5C41.4,10.2,42,10.6,42.9,10.6z"/>
						</g>
						<g>
							<path class="st2" d="M74.5,12.8c-0.3,0-0.6,0-1.2,0c-0.4,0-1,0-1.7-0.1c-0.3,0-0.7,0-1,0c-0.4,0-0.7,0-1.2,0s-0.9,0-1.3,0
								s-0.9,0-1.5,0c-1,0-2,0-3,0c-0.6,0-1,0-1.6,0c-0.3,0-0.6,0-0.9,0c-0.3,0-0.6,0-0.9,0c-1.2,0-2.2,0-3.3,0l0,0v0.9l0,0
								c1.2,0,2.2,0,3.3,0c0.3,0,0.6,0,0.9,0c0.3,0,0.6,0,0.9,0c0.6,0,1,0,1.6,0c1,0,2,0,3,0c0.4,0,1,0,1.5,0s0.9,0,1.3,0
								c0.4,0,0.9,0,1.2,0c0.4,0,0.7,0,1,0c0.7,0,1.3,0,1.7-0.1C73.9,12.8,74.4,12.8,74.5,12.8c0.3,0,0.4,0,0.4,0
								S74.8,12.8,74.5,12.8z"/>
							<path class="st2" d="M57.1,6.7L57.1,6.7v3.7l0,0c0.4-0.4,0.6-1,0.6-1.6C57.8,8.1,57.5,7.3,57.1,6.7z"/>
							<path class="st2" d="M59,8.5c0-0.1,0-0.4-0.1-0.7c-0.1-0.3-0.1-0.6-0.1-0.7c0-0.1,0-0.4,0.1-0.7c-0.3,0-0.4,0.1-0.6,0.4
								C58.1,7,58,7.2,58,7.5c0,0.1,0,0.3,0.1,0.7c0,0.3,0,0.4,0,0.7c0,0.6-0.3,1-0.6,1.5c0.4-0.1,0.9-0.3,1.2-0.6
								C58.8,9.4,59,9,59,8.5z"/>
							<path class="st2" d="M59,6.4c0.1-0.3,0.1-0.3,0-0.6c0.1-0.1,0.3,0,0.3,0c0.1,0.3,0.1,0.6-0.1,0.7c0.6,0.7,1-0.7,0.3-1.2
								c-0.6-0.3-1.3,0.3-1.3,0.9l0,0C58.1,6.1,58.8,5.7,59,6.4z"/>
							<path class="st2" d="M59.4,11.5c0-0.1,0-0.4,0-0.6c0-0.4,0.1-1,0.1-1.5c0.1-0.9,0.4-1.8,1-2.4c0.3-0.3,0.7-0.6,1.2-0.7
								c0.3,0,0.6,0,0.9,0c0.1,0,0.1,0.1,0.3,0.1c0.4,0.3,0.7,0.9,0.6,1.5c0,0.6-0.4,1-0.9,0.9c-0.3,0-0.7-0.4-0.6-1
								c0.1-0.4,0.4-0.6,0.7-0.4c-0.6,0.1-0.3,0.9,0,0.9c0.1,0,0.4-0.3,0.4-0.6c0-0.3-0.3-0.7-0.6-0.7c-0.7-0.1-1.3,0.9-1,1.6
								c0.3,1,1.3,1.2,2,0.6c1.3-1,0.7-3.4-0.6-4.2c-0.7-0.3-1.5-0.3-2.2,0.1c-0.6,0.4-1.2,1.2-1.5,1.9
								C59.1,8.5,59.1,10.2,59.4,11.5z"/>
							<path class="st2" d="M68.3,9C68.5,9.1,69,9,69,8.5c0-0.1-0.1-0.4-0.3-0.4c-0.1,0-0.3,0-0.3,0.1c0,0.1,0.1,0.4,0.3,0.1
								c0,0.1-0.1,0.3-0.3,0.3s-0.3-0.3-0.3-0.4c0.1-0.4,0.4-0.4,0.7-0.3c0.1,0.1,0.3,0.4,0.3,0.7c0,0.4-0.3,0.7-0.4,1
								c-0.4,0.4-1,0.7-1.7,1c-0.7,0.1-1.5,0.3-2,0.3c-0.9,0-1.7-0.1-2.8-0.4c-0.6,0-1.5-0.1-2,0.6c-0.1,0.1,0.1,0.6,0.3,0.3
								c0.6-0.6,1.3-0.4,1.9-0.3c0.6,0.1,1.2,0.3,1.9,0.4c1.5,0.1,3-0.1,4.4-0.9c0.3-0.1,0.6-0.4,0.9-0.7c0.3-0.3,0.4-0.7,0.4-1.2
								s-0.1-0.9-0.4-1.2c-0.3-0.1-0.6-0.3-0.9-0.1C68.1,7.6,67.8,8.7,68.3,9z"/>
							<path class="st2" d="M67.4,12.1c1.6-1.3,2.9-1.3,3.9-0.3c0.4,0.4,0.9,0.4,1,0.4c0.1,0,0.1-0.1,0.3-0.3c0-0.1-0.1-0.6-0.7-0.9
								C70.6,10.2,68.5,10.6,67.4,12.1z"/>
							<path class="st2" d="M64.8,8.5C64.8,8.5,64.8,8.4,64.8,8.5c0-0.1,0-0.1,0-0.1s0,0,0-0.1V8.1c0-0.1,0-0.1,0-0.3V7.6
								c0,0,0,0,0,0.1c0,0,0,0,0,0.1v0.1v0.1v0.1C64.8,8.4,64.8,8.4,64.8,8.5c0,0,0,0,0,0.1c0,0,0,0,0,0.1l0,0l0,0
								c-0.1,0.1-0.1,0.3-0.3,0.4c-0.1,0.1-0.3,0.3-0.4,0.3h-0.1h-0.1l0,0l0,0h-0.1c-0.1,0-0.3,0-0.6,0c-0.1,0-0.4,0-0.6,0h-0.1l0,0
								l0,0l0,0l0,0l0,0l0,0h-0.1H62c0,0,0,0-0.1,0c0,0,0,0-0.1,0s-0.4,0-0.6,0.1C61,9.9,60.9,9.9,60.7,10c-0.4,0.1-0.6,0.3-0.6,0.4
								C60,10.6,60,10.7,60,10.7c0,0.1,0,0.1-0.1,0.3v0.1l0,0L60,11c0-0.1,0.1-0.1,0.3-0.3c0.1-0.1,0.1-0.1,0.3-0.3
								c0.1,0,0.3-0.1,0.4-0.1s0.3,0,0.4,0s0.1,0,0.3,0c0.1,0,0.1,0,0.3,0.1h0.1h0.1h0.1h0.1c0.3,0,0.4,0,0.7-0.1
								c0.1,0,0.3-0.1,0.3-0.1s0.1,0,0.1-0.1l0,0l0,0c0.1-0.1,0.3-0.3,0.4-0.4c1-1.3,1.5-3.6,0.7-5.2c-0.3-0.7-0.6-0.9-0.7-0.9
								C64,3.4,64,3.6,64,3.7c-0.1,0.3-0.1,0.9,0.3,1.3C65.1,6.1,65.2,7.2,64.8,8.5z"/>
							<path class="st2" d="M65.2,9h-0.1c0,0,0,0,0,0.1c0,0.3-0.1,0.4-0.3,0.7c-0.1,0.1-0.3,0.3-0.4,0.6c-0.3,0.3-0.7,0.3-0.9,0.4
								h0.1c2.2,0.4,3.3-0.7,3.8-1.5c0.3-0.3,0.4-0.7,0.4-1.2v0.1c-0.3,0.4-0.6,0.6-1,0.3c-0.3-0.1-0.4,0-0.6,0.1
								c-0.1,0.1-0.1,0.4-0.3,0.9c0,0.1-0.1,0.3-0.1,0.4c-0.1,0.3-0.4,0.4-0.4,0.3c0,0-0.1-0.1,0.1-0.6c0-0.1,0.1-0.1,0.1-0.3l0,0
								c0.3-1.2,0.9-1.5,1.5-1c0.3,0.1,0.4,0.1,0.6,0V8.4c0-0.1-0.1-0.3-0.4-0.4c-0.7-0.3-1.3,0.4-1.5,1.3C65.2,9.1,65.2,9,65.2,9z"
								/>
							<path class="st2" d="M68.3,11.9l2.9,0.3c0-0.6-0.6-1-1.5-1C68.8,11.3,68.7,11.6,68.3,11.9z"/>
							<path class="st2" d="M58.1,5.5l-0.9-3l0,0v3.6l0,0c0.3,0.1,0.4,0.4,0.4,0.4C58.2,6.1,58.1,5.5,58.1,5.5z"/>
							<path class="st2" d="M57.1,10.6L57.1,10.6v1.2l0,0c0,0,1.3-0.7,1.3-1.5C58.5,10.2,58,10.6,57.1,10.6z"/>
						</g>
						<g>
							<path class="st2" d="M49.5,3.7h-4.4C45,3.7,45,3.9,45,3.9v1.3c-0.3,0-0.6,0-0.9,0.3c-0.4,0.4-0.7,2.7-0.4,4.2
								c0.3,1,0.7,1.6,1.3,1.8v1.3c0,0.1,0,0.1,0.1,0.1h4.4c0.1,0,0.1-0.1,0.1-0.1V3.7C49.7,3.7,49.7,3.7,49.5,3.7z M44.5,9.7
								c-0.4-1.3,0-3.3,0.1-3.6C44.7,6,44.9,6,45,6v4.8C44.7,10.6,44.6,10.3,44.5,9.7z M49.2,12.7h-3.8V4.3h3.8V12.7z"/>
							<path class="st2" d="M46,12.2h0.3c0.1,0,0.1-0.1,0.1-0.1V4.9c0-0.1,0-0.1-0.1-0.1H46c-0.1,0-0.1,0.1-0.1,0.1v7.2
								C45.9,12.1,46,12.2,46,12.2z"/>
							<path class="st2" d="M47.2,12.2h0.3c0.1,0,0.1-0.1,0.1-0.1V4.9c0-0.1,0-0.1-0.1-0.1h-0.3c-0.1,0-0.1,0.1-0.1,0.1v7.2
								C46.9,12.1,47.1,12.2,47.2,12.2z"/>
							<path class="st2" d="M48.2,12.2h0.3c0.1,0,0.1-0.1,0.1-0.1V4.9c0-0.1,0-0.1-0.1-0.1h-0.3c-0.1,0-0.1,0.1-0.1,0.1v7.2
								C48.1,12.1,48.2,12.2,48.2,12.2z"/>
							<path class="st2" d="M45.2,3.3c0-0.1,0-0.3,0-0.4V2.7l0,0l0,0l0,0c0,0,0,0,0.1,0l0,0h0.1c0.1,0,0.1,0,0.3,0.1h0.1V2.7V2.5
								V2.4c0,0,0-0.1,0.1-0.1c0,0,0,0,0.1-0.1h0.1h0.1h0.1l0,0l0,0h0.1h0.1h0.1c0,0,0.1,0,0.1,0.1c0,0,0,0,0.1,0.1
								c0,0,0,0.1,0.1,0.1v0.1v0.1l0.1,0.6l0.1-0.6V2.7V2.5c0,0,0-0.1,0.1-0.1c0,0,0-0.1,0.1-0.1c0,0,0,0,0.1-0.1h0.1h0.1h0.1l0,0
								l0,0l0,0l0,0l0,0l0,0h0.1l0,0c0,0,0.1,0,0.1,0.1l0,0l0,0l0,0c0,0,0,0,0,0.1v0.1v0.1C49,2.8,49,3,48.8,3l-0.1,0.1L48.8,3H49
								h0.1h0.1c0,0,0,0,0.1,0.1c0,0,0-0.1-0.1-0.1c0,0-0.1,0-0.1-0.1H49l0,0c0-0.1,0-0.1,0.1-0.3c0,0,0-0.1,0-0.3V2.1V1.9V1.8V1.6
								c0,0,0,0,0-0.1c0,0,0,0-0.1,0h-0.1h-0.1l0,0l0,0l0,0l0,0l0,0h-0.1h-0.1h-0.1c0,0-0.1,0-0.1,0.1l-0.1,0.1l-0.1,0.1l-0.1,0.1
								l0,0l0,0l-0.1-0.1l-0.1-0.1l-0.1-0.1c0,0-0.1,0-0.1-0.1h-0.1h-0.1c0,0,0,0-0.1,0h-0.1h-0.1h-0.1c0,0-0.1,0-0.1,0.1l-0.1,0.1
								l-0.1,0.1v0.1c0,0,0,0,0,0.1c-0.1,0-0.1,0-0.3,0h-0.1c0,0,0,0-0.1,0c0,0,0,0-0.1,0l0,0l0,0c0,0,0,0,0,0.1c0,0.1,0,0.1,0,0.3
								C45,3,45,3.1,45.2,3.3z"/>
						</g>
						<g>
							<path class="st2" d="M50.3,3.9V13c0,0.1,0,0.1,0.1,0.1h4.4c0.1,0,0.1-0.1,0.1-0.1v-1.3c0.6-0.3,1-0.9,1.3-1.8
								c0.3-1.5,0-3.7-0.4-4.2c-0.3-0.3-0.6-0.4-0.9-0.3V4c0-0.1,0-0.1-0.1-0.1h-4.4C50.3,3.7,50.3,3.7,50.3,3.9z M54.9,10.7V6
								c0.1,0,0.3,0,0.4,0.1c0.1,0.3,0.6,2.2,0.1,3.6C55.3,10.3,55.2,10.6,54.9,10.7z M50.7,4.3h3.8v8.4h-3.8V4.3z"/>
							<path class="st2" d="M53.7,12.2h-0.3c-0.1,0-0.1-0.1-0.1-0.1V4.9c0-0.1,0-0.1,0.1-0.1h0.3c0.1,0,0.1,0.1,0.1,0.1v7.2
								C54,12.1,53.9,12.2,53.7,12.2z"/>
							<path class="st2" d="M52.7,12.2h-0.3c-0.1,0-0.1-0.1-0.1-0.1V4.9c0-0.1,0-0.1,0.1-0.1h0.3c0.1,0,0.1,0.1,0.1,0.1v7.2
								C52.9,12.1,52.9,12.2,52.7,12.2z"/>
							<path class="st2" d="M51.7,12.2h-0.3c-0.1,0-0.1-0.1-0.1-0.1V4.9c0-0.1,0-0.1,0.1-0.1h0.3c0.1,0,0.1,0.1,0.1,0.1v7.2
								C51.9,12.1,51.7,12.2,51.7,12.2z"/>
							<path class="st2" d="M54.8,3.3c0-0.1,0-0.3,0-0.4V2.7l0,0l0,0l0,0c0,0,0,0-0.1,0l0,0h-0.1c-0.1,0-0.1,0-0.3,0.1H54V2.7V2.5
								V2.4c0,0,0-0.1-0.1-0.1c0,0,0,0-0.1-0.1h-0.1h-0.1h-0.1l0,0l0,0h-0.1H53h-0.1c0,0-0.1,0-0.1,0.1c0,0,0,0-0.1,0.1
								c0,0,0,0.1-0.1,0.1v0.1v0.1l-0.1,0.6l-0.1-0.6V2.7V2.5c0,0,0-0.1-0.1-0.1c0,0,0-0.1-0.1-0.1c0,0,0,0-0.1-0.1h-0.1h-0.1h-0.1
								l0,0l0,0l0,0l0,0l0,0l0,0h-0.1l0,0c0,0-0.1,0-0.1,0.1l0,0l0,0l0,0c0,0,0,0,0,0.1v0.1v0.1C51,2.8,51,3,51.1,3l0.1,0.1L51.1,3
								H51h-0.1h-0.1c0,0,0,0-0.1,0.1c0,0,0-0.1,0.1-0.1c0,0,0.1,0,0.1-0.1H51l0,0c0-0.1,0-0.1-0.1-0.3c0,0,0-0.1,0-0.3V2.1V1.9V1.8
								V1.6c0,0,0,0,0-0.1c0,0,0,0,0.1,0h0.1h0.1l0,0l0,0l0,0l0,0l0,0h0.1h0.1h0.1c0,0,0.1,0,0.1,0.1L52,1.8l0.1,0.1l0.1,0.1l0,0
								l0,0l0.1-0.1l0.1-0.1l0.1-0.1c0,0,0.1,0,0.1-0.1H53h0.1c0,0,0,0,0.1,0h0.1h0.1h0.1c0,0,0.1,0,0.1,0.1L54,1.8l0.1,0.1v0.1
								c0,0,0,0,0,0.1c0.1,0,0.1,0,0.3,0h0.1c0,0,0,0,0.1,0c0,0,0,0,0.1,0l0,0l0,0c0,0,0,0,0,0.1c0,0.1,0,0.1,0,0.3
								C54.9,3,54.9,3.1,54.8,3.3z"/>
						</g>
					</g>
					<g class="st1">
						<text transform="matrix(0.9873 0 0 1 71.3815 28.1655)" class="st2 st6 st7">1897</text>
					</g>
					<g class="st1">
						<text transform="matrix(1.2793 0 0 1 21.5146 28.2275)" class="st2 st6 st8">ES</text>
						<text transform="matrix(1.2793 0 0 1 26.626 28.1655)" class="st2 st6 st8">T</text>
						<text transform="matrix(1.2793 0 0 1 27.4355 28.2275)" class="st2 st6 st8">.</text>
					</g>
					<g class="st1">
						<path class="st2" d="M48.1,33.7c-0.1,0.7-0.3,1.3-0.7,1.8c-0.3,0.3-0.6,0.4-0.9,0.6c-0.3,0-0.4,0-0.7,0c-0.1,0-0.1,0-0.3-0.1
							c-0.3-0.3-0.4-0.6-0.4-1c0-0.4,0.3-0.7,0.6-0.7s0.6,0.3,0.4,0.7c-0.1,0.3-0.3,0.4-0.6,0.4c0.4-0.1,0.3-0.7,0-0.7
							c-0.1,0-0.3,0.1-0.3,0.4c0,0.3,0.1,0.6,0.4,0.6c0.6,0.1,0.9-0.6,0.7-1.2c-0.1-0.7-1-0.9-1.5-0.4c-1,0.9-0.6,2.5,0.4,3.1
							c0.4,0.3,1.2,0.1,1.6-0.1c0.4-0.3,0.9-0.9,1.2-1.5c0.4-1,0.3-2.2,0.1-3.3c0,0.1,0,0.3,0,0.4C48.2,33,48.1,33.4,48.1,33.7z"/>
						<path class="st2" d="M48.7,34.3c0,0.1,0,0.3,0.1,0.6c0.1,0.3,0.1,0.4,0.1,0.6c0,0.1,0,0.3-0.1,0.4c0.1,0,0.3-0.1,0.4-0.3
							c0.1-0.1,0.1-0.3,0.1-0.6c0-0.1,0-0.3,0-0.4s0-0.3,0-0.4c0-0.4,0.1-0.9,0.4-1.2c-0.4,0.1-0.7,0.3-0.9,0.4
							C48.7,33.7,48.7,34,48.7,34.3z"/>
						<path class="st2" d="M50.4,34.3c0-0.4-0.1-0.9-0.4-1.3c-0.3,0.4-0.4,0.7-0.4,1.3c0,0.4,0.1,0.9,0.4,1.5
							C50.3,35.2,50.4,34.8,50.4,34.3z"/>
						<path class="st2" d="M51,33.4c-0.1-0.3-0.4-0.4-0.9-0.4c0.3,0.3,0.4,0.7,0.4,1.2c0,0.1,0,0.3,0,0.4c0,0.3,0,0.4,0,0.4
							c0,0.1,0,0.4,0.1,0.6c0.1,0.1,0.3,0.3,0.4,0.3C51,35.8,51,35.7,51,35.5s0-0.3,0.1-0.6c0.1-0.3,0.1-0.4,0.1-0.6
							C51.3,34,51.3,33.7,51,33.4z"/>
						<path class="st2" d="M51.3,36c0,0.6-0.6,0.1-0.6,0l0,0c0,0.6,0.6,1,1,0.7c0.4-0.3,0.1-1.5-0.3-0.9c0.1,0,0.1,0.3,0,0.4
							c0,0.1-0.1,0.1-0.3,0C51.4,36.3,51.4,36.1,51.3,36z"/>
						<path class="st2" d="M51.4,35.8L51.4,35.8L51.4,35.8L51.4,35.8z"/>
						<path class="st2" d="M48.5,35.8c-0.4-0.6-0.7,0.6-0.3,0.9c0.4,0.3,1-0.1,1-0.7l0,0c0,0.1-0.6,0.6-0.6,0
							c-0.1,0.1-0.1,0.3,0,0.4c0,0.1-0.1,0-0.3,0C48.2,36.1,48.2,36,48.5,35.8z"/>
						<path class="st2" d="M48.5,35.8L48.5,35.8L48.5,35.8L48.5,35.8z"/>
						<path class="st2" d="M51.9,35.4c0.3,0.6,0.6,1.2,1.2,1.5c0.4,0.3,1.2,0.3,1.6,0.1c1-0.4,1.3-2.2,0.4-3.1
							c-0.4-0.4-1.3-0.3-1.5,0.4c-0.1,0.6,0.3,1.3,0.7,1.2c0.3,0,0.4-0.3,0.4-0.6s-0.1-0.4-0.3-0.4c-0.3,0-0.4,0.6,0,0.7
							c-0.1,0-0.4,0-0.6-0.4C53.7,34.3,54,34,54.3,34c0.3,0,0.6,0.3,0.6,0.7s-0.1,0.9-0.4,1c0,0-0.1,0.1-0.3,0.1
							c-0.1,0.1-0.4,0.1-0.7,0c-0.3-0.1-0.7-0.3-0.9-0.6c-0.4-0.4-0.6-1.2-0.7-1.8c0-0.3-0.1-0.7-0.1-1c0-0.1,0-0.3,0-0.4
							C51.4,33.3,51.4,34.3,51.9,35.4z"/>
						<path class="st2" d="M49.2,36.6l0.7,2.2l0.7-2.2c0,0,0.1-0.4-0.4-0.9c0,0-0.1,0.3-0.3,0.4c-0.1-0.1-0.3-0.4-0.3-0.4
							C49.1,36.3,49.2,36.6,49.2,36.6z"/>
						<path class="st2" d="M50,31.9c0,0-1,0.6-1,1.2c0,0,0.4-0.3,1-0.3c0.6,0,1,0.3,1,0.3C51,32.4,50,31.9,50,31.9z"/>
					</g>
				</g>
			</g>
		</g>
	</g>
	<g>
		<g>
			<g>
			</g>
			
				<radialGradient id="SVGID_3_" cx="1403.8932" cy="-8048.1621" r="3.629" gradientTransform="matrix(0.1066 -7.594220e-02 -2.884242e-02 -6.045378e-02 -351.4772 -371.0979)" gradientUnits="userSpaceOnUse">
				<stop  offset="0" style="stop-color:#FFFFFF"/>
				<stop  offset="1" style="stop-color:#FFFFFF;stop-opacity:0"/>
			</radialGradient>
			<path class="st9" d="M30.5,9.3c-0.2,0.2-0.5,0.1-0.6-0.1s0-0.5,0.2-0.7c0.2-0.2,0.5-0.1,0.6,0.1"/>
		</g>
		<g>
			<g>
			</g>
			
				<radialGradient id="SVGID_4_" cx="1675.5752" cy="-8234.8564" r="2.4132" gradientTransform="matrix(0.1066 -7.594220e-02 -2.884242e-02 -6.045378e-02 -346.7149 -361.9431)" gradientUnits="userSpaceOnUse">
				<stop  offset="0" style="stop-color:#FFFFFF"/>
				<stop  offset="1" style="stop-color:#FFFFFF;stop-opacity:0"/>
			</radialGradient>
			<path class="st10" d="M69.1,9.2c-0.1-0.2,0-0.5,0.2-0.7s0.5-0.1,0.6,0.1"/>
		</g>
		<g>
			<g>
			</g>
		</g>
		<g>
			<g>
			</g>
		</g>
	</g>
</g>
</svg>
